<svg id="Layer_1" data-name="Layer 1" xmlns="http://www.w3.org/2000/svg" viewBox="0 0 630.05 207.93"><defs><style>.cls-1{fill:#fff;}</style></defs><title>AWTC Logog Final White</title><path class="cls-1" d="M1864.56,812.48,1854.63,850H1919l10-37.51ZM1909,837h-37.43l3.06-11.47H1912L1909,837Z" transform="translate(-1305.14 -787.25)"/><polygon class="cls-1" points="573.84 13.04 577.3 0 630.05 0 626.61 13.04 573.84 13.04 573.84 13.04"/><path class="cls-1" d="M1832.75,872.25c-8.2,0-13.19,4.17-16.33,9.32v-8.29h-7.1V921h7.1V893.68c0-8.95,6.07-14.95,14.31-14.95,8.4,0,13.2,5.52,13.2,14.4V921H1851V891.36c0-11.35-6.74-19.11-18.29-19.11ZM1516.35,921h7.11V862.16h-7.11V921Zm-84.71-5.25c-10,0-17.53-8.22-17.53-18.64s7.38-18.56,17.08-18.56c6.46,0,10.71,3.22,14.48,7.19l4.73-5c-4.43-4.71-10.08-8.5-19.12-8.5-13.93,0-24.46,11.45-24.46,25a24.53,24.53,0,0,0,24.46,24.83c9,0,14.69-3.88,19.47-9.23l-4.51-4.25c-3.8,4.08-8.49,7.12-14.6,7.12ZM1726.08,921h7.11V873.28h-7.11V921Zm-399.34-48.36a39.25,39.25,0,0,0-17.34,4l2.11,5.83a33.1,33.1,0,0,1,14.49-3.52c9,0,14.21,4.42,14.21,13v1.67a50.6,50.6,0,0,0-14.68-2c-12.08,0-20.39,5.36-20.39,15.49s9,15,17.81,15a20.91,20.91,0,0,0,17.26-8.23V921H1347V891.83c0-12.55-7.28-19.2-20.29-19.2Zm13.58,30.83c0,7.57-7.21,12.92-16,12.92-6.46,0-12-3.51-12-9.61s5-9.95,13.93-9.95a50.18,50.18,0,0,1,14,2v4.61Zm41.89,12.28c-10,0-17.54-8.22-17.54-18.64s7.38-18.56,17.06-18.56c6.48,0,10.71,3.22,14.5,7.19l4.71-5c-4.44-4.71-10.07-8.5-19.11-8.5-13.94,0-24.48,11.45-24.48,25a24.54,24.54,0,0,0,24.48,24.83c9,0,14.67-3.88,19.47-9.23l-4.53-4.25c-3.78,4.08-8.47,7.12-14.56,7.12Zm97-43.49c-13.2,0-22.89,11.08-22.89,24.93,0,14.85,10.69,24.92,23.81,24.92,9.05,0,14.85-3.6,19.66-9l-4.42-4c-3.9,4.07-8.51,6.74-15.07,6.74-8.39,0-15.78-5.8-16.79-16.13h37.84a18.11,18.11,0,0,0,.1-2.23c0-14-8.13-25.3-22.24-25.3Zm-15.7,22.26c.93-9.34,7.2-16.25,15.51-16.25,9.5,0,14.48,7.58,15.23,16.25Zm187.87-21.88a39.47,39.47,0,0,0-17.36,4l2.12,5.83a33.18,33.18,0,0,1,14.5-3.52c9,0,14.22,4.42,14.22,13v1.67a50.88,50.88,0,0,0-14.69-2c-12.09,0-20.39,5.36-20.39,15.49s8.94,15,17.81,15a21,21,0,0,0,17.27-8.23V921h6.83V891.83c0-12.55-7.31-19.2-20.31-19.2Zm13.55,30.83c0,7.57-7.17,12.92-16,12.92-6.45,0-12-3.51-12-9.61s5-9.95,13.94-9.95a49.69,49.69,0,0,1,14,2v4.61Zm60.71-35.94h8.12v-5.36h-8.12v5.36Zm-27.86-5.36h-7.1v11.12H1684v6.27h6.65v28.81c0,9.67,5.81,13.47,13.46,13.47a17.86,17.86,0,0,0,8.6-2v-6.08a15,15,0,0,1-6.93,1.65c-4.79,0-8-2.12-8-7.93V879.55h15.14v-6.27h-15.14V862.16Zm-92.35,23.57V873.28h-7.12V921h7.12V902c0-14.4,8.48-21.87,18.91-21.87h.56v-7.66c-9-.38-16,5.35-19.47,13.28Zm166.27-13.48a24.73,24.73,0,0,0-24.93,25,24.47,24.47,0,0,0,24.74,24.83,24.93,24.93,0,0,0,.19-49.85Zm0,43.49c-10.06,0-17.63-8.31-17.63-18.64s7.12-18.56,17.44-18.56c10.07,0,17.73,8.31,17.73,18.73,0,10.25-7.19,18.47-17.54,18.47Zm-209.92-43.49c-13.19,0-22.88,11.08-22.88,24.93,0,14.85,10.71,24.92,23.81,24.92,9,0,14.86-3.6,19.65-9l-4.42-4c-3.88,4.07-8.49,6.74-15.05,6.74-8.41,0-15.79-5.8-16.8-16.13h37.84a20.11,20.11,0,0,0,.09-2.23c0-14-8.11-25.3-22.24-25.3Zm-15.69,22.26c.92-9.34,7.2-16.25,15.51-16.25,9.52,0,14.5,7.58,15.22,16.25Z" transform="translate(-1305.14 -787.25)"/><path class="cls-1" d="M1318.06,989h-7.6l-1.75,5.88h-2.9l7.24-22.49h2.43l7.26,22.49h-2.9l-1.78-5.88Zm-6.86-2.43h6.13l-3.07-10.23-3.06,10.23Z" transform="translate(-1305.14 -787.25)"/><polygon class="cls-1" points="35.99 200.53 36.29 203.05 36.74 200.82 40.34 185.13 42.7 185.13 46.19 200.82 46.64 203.11 46.96 200.51 49.72 185.13 52.54 185.13 48.06 207.62 45.51 207.62 41.76 191.23 41.53 189.9 41.3 191.23 37.4 207.62 34.84 207.62 30.37 185.13 33.2 185.13 35.99 200.53 35.99 200.53"/><path class="cls-1" d="M1376.25,972.38v16a6.79,6.79,0,0,1-1.85,5,6.87,6.87,0,0,1-12-5v-16h2.81v15.87a5.12,5.12,0,0,0,1,3.39,4.92,4.92,0,0,0,6.25,0,5.12,5.12,0,0,0,1-3.39V972.38Z" transform="translate(-1305.14 -787.25)"/><polygon class="cls-1" points="92.06 207.62 89.22 207.62 80.21 190.28 80.21 207.62 77.37 207.62 77.37 185.13 80.21 185.13 89.25 202.54 89.25 185.13 92.06 185.13 92.06 207.62 92.06 207.62"/><path class="cls-1" d="M1404,994.87V972.38h5.36a7.75,7.75,0,0,1,6.12,2.46,10.12,10.12,0,0,1,2.18,6.93v3.77q0,4.47-2.21,6.9a8.24,8.24,0,0,1-6.42,2.43Zm2.83-20.07v17.64h2.27a5.24,5.24,0,0,0,4.35-1.7,8.06,8.06,0,0,0,1.41-5.07v-4q0-3.55-1.37-5.22a5.06,5.06,0,0,0-4.13-1.66Z" transform="translate(-1305.14 -787.25)"/><polygon class="cls-1" points="129.6 197.22 121.64 197.22 121.64 205.19 130.91 205.19 130.91 207.62 118.82 207.62 118.82 185.13 130.76 185.13 130.76 187.55 121.64 187.55 121.64 194.8 129.6 194.8 129.6 197.22 129.6 197.22"/><path class="cls-1" d="M1448.37,985.77h-4v9.1h-2.84V972.38h6.3a6.74,6.74,0,0,1,5,1.72,6.9,6.9,0,0,1,1.7,5,7,7,0,0,1-.92,3.64,5.74,5.74,0,0,1-2.6,2.34l4.35,9.57v.18h-3l-4-9.1Zm-4-2.42h3.43a3.7,3.7,0,0,0,2.84-1.15,4.34,4.34,0,0,0,1.06-3.06q0-4.33-3.93-4.34h-3.4v8.55Z" transform="translate(-1305.14 -787.25)"/><polygon class="cls-1" points="158.76 185.13 164.64 203.48 170.51 185.13 174.15 185.13 174.15 207.62 171.33 207.62 171.33 198.86 171.59 190.09 165.7 207.62 163.54 207.62 157.69 190.15 157.95 198.86 157.95 207.62 155.12 207.62 155.12 185.13 158.76 185.13 158.76 185.13"/><path class="cls-1" d="M1496.55,989H1489l-1.74,5.88h-2.91l7.25-22.49H1494l7.26,22.49h-2.9l-1.78-5.88Zm-6.86-2.43h6.14l-3.08-10.23-3.06,10.23Z" transform="translate(-1305.14 -787.25)"/><polygon class="cls-1" points="215.74 207.62 212.9 207.62 203.89 190.28 203.89 207.62 201.05 207.62 201.05 185.13 203.89 185.13 212.93 202.54 212.93 185.13 215.74 185.13 215.74 207.62 215.74 207.62"/><polygon class="cls-1" points="244.21 187.55 238.3 187.55 238.3 207.62 235.47 207.62 235.47 187.55 229.57 187.55 229.57 185.13 244.21 185.13 244.21 187.55 244.21 187.55"/><polygon class="cls-1" points="264.16 207.62 261.31 207.62 261.31 197.22 252.26 197.22 252.26 207.62 249.43 207.62 249.43 185.13 252.26 185.13 252.26 194.8 261.31 194.8 261.31 185.13 264.16 185.13 264.16 207.62 264.16 207.62"/><path class="cls-1" d="M1590.73,985.6c0,3.07-.66,5.44-2,7.09a6.66,6.66,0,0,1-5.57,2.49,6.8,6.8,0,0,1-5.5-2.42,10.7,10.7,0,0,1-2.09-6.83v-4.24a11.14,11.14,0,0,1,2-7.06,6.62,6.62,0,0,1,5.56-2.56,6.73,6.73,0,0,1,5.53,2.45q2,2.44,2,7v4.09Zm-2.83-3.94a9.57,9.57,0,0,0-1.17-5.3,4.48,4.48,0,0,0-7.1,0,9.29,9.29,0,0,0-1.22,5.19v4a9.48,9.48,0,0,0,1.2,5.25,4,4,0,0,0,3.58,1.81,4,4,0,0,0,3.52-1.67,9.36,9.36,0,0,0,1.19-5.11v-4.22Z" transform="translate(-1305.14 -787.25)"/><polygon class="cls-1" points="295.5 185.13 301.37 203.48 307.25 185.13 310.89 185.13 310.89 207.62 308.06 207.62 308.06 198.86 308.32 190.09 302.44 207.62 300.28 207.62 294.42 190.15 294.68 198.86 294.68 207.62 291.86 207.62 291.86 185.13 295.5 185.13 295.5 185.13"/><path class="cls-1" d="M1625.63,986.07v8.8h-2.83V972.38H1630a6.44,6.44,0,0,1,4.92,1.88,8,8,0,0,1,.09,10,6.63,6.63,0,0,1-4.81,1.82Zm0-2.43H1630a3.69,3.69,0,0,0,2.89-1.13,4.76,4.76,0,0,0,1-3.24,4.93,4.93,0,0,0-1-3.25,3.56,3.56,0,0,0-2.85-1.22h-4.35v8.84Z" transform="translate(-1305.14 -787.25)"/><path class="cls-1" d="M1652.06,989.19a3.5,3.5,0,0,0-.91-2.59,9.58,9.58,0,0,0-3.3-1.74,14.56,14.56,0,0,1-3.63-1.78,6.43,6.43,0,0,1-1.89-2.14,6.34,6.34,0,0,1,1.16-7.14,6.45,6.45,0,0,1,4.68-1.73,7,7,0,0,1,3.52.88,6.06,6.06,0,0,1,2.38,2.46,7.34,7.34,0,0,1,.83,3.46h-2.84a4.73,4.73,0,0,0-1-3.23,3.64,3.64,0,0,0-2.88-1.15,3.54,3.54,0,0,0-2.66,1,3.69,3.69,0,0,0-1,2.7,3.13,3.13,0,0,0,1,2.38,9.21,9.21,0,0,0,3.15,1.72,10.82,10.82,0,0,1,4.76,2.7,6.12,6.12,0,0,1,1.43,4.21,5.71,5.71,0,0,1-1.78,4.38,6.89,6.89,0,0,1-4.84,1.64,7.7,7.7,0,0,1-3.62-.86,6.4,6.4,0,0,1-2.61-2.41,6.61,6.61,0,0,1-1-3.56H1644a4.37,4.37,0,0,0,1.17,3.25,4.31,4.31,0,0,0,3.17,1.16,3.75,3.75,0,0,0,2.81-1,3.56,3.56,0,0,0,1-2.61Z" transform="translate(-1305.14 -787.25)"/><path class="cls-1" d="M1675.16,985.6c0,3.07-.66,5.44-2,7.09a6.68,6.68,0,0,1-5.57,2.49,6.8,6.8,0,0,1-5.5-2.42,10.7,10.7,0,0,1-2.09-6.83v-4.24a11.2,11.2,0,0,1,2-7.06,6.65,6.65,0,0,1,5.56-2.56,6.74,6.74,0,0,1,5.54,2.45c1.33,1.63,2,4,2,7v4.09Zm-2.83-3.94a9.57,9.57,0,0,0-1.17-5.3,4.49,4.49,0,0,0-7.11,0,9.38,9.38,0,0,0-1.21,5.19v4a9.48,9.48,0,0,0,1.2,5.25,4,4,0,0,0,3.58,1.81,4,4,0,0,0,3.52-1.67,9.36,9.36,0,0,0,1.19-5.11v-4.22Z" transform="translate(-1305.14 -787.25)"/><polygon class="cls-1" points="390.98 207.62 388.13 207.62 379.13 190.28 379.13 207.62 376.29 207.62 376.29 185.13 379.13 185.13 388.17 202.54 388.17 185.13 390.98 185.13 390.98 207.62 390.98 207.62"/><path class="cls-1" d="M1726.17,987.72a8.39,8.39,0,0,1-2,5.54,6.92,6.92,0,0,1-5.22,1.92,6.47,6.47,0,0,1-5.38-2.57,11.11,11.11,0,0,1-2-7v-4.08a10.73,10.73,0,0,1,2-6.93,6.76,6.76,0,0,1,5.58-2.55,6.51,6.51,0,0,1,5,1.95,8.53,8.53,0,0,1,1.94,5.57h-2.86a6.9,6.9,0,0,0-1.16-3.92,3.65,3.65,0,0,0-3-1.18,4,4,0,0,0-3.53,1.8,9.28,9.28,0,0,0-1.24,5.28v4.13a9.8,9.8,0,0,0,1.15,5.23,3.73,3.73,0,0,0,3.36,1.83,4.05,4.05,0,0,0,3.18-1.1,7,7,0,0,0,1.21-3.94Z" transform="translate(-1305.14 -787.25)"/><path class="cls-1" d="M1746.53,985.6c0,3.07-.66,5.44-2,7.09a6.7,6.7,0,0,1-5.58,2.49,6.8,6.8,0,0,1-5.5-2.42,10.7,10.7,0,0,1-2.09-6.83v-4.24a11.2,11.2,0,0,1,2-7.06,6.62,6.62,0,0,1,5.56-2.56,6.72,6.72,0,0,1,5.53,2.45q2,2.44,2,7v4.09Zm-2.83-3.94a9.57,9.57,0,0,0-1.17-5.3,4.49,4.49,0,0,0-7.11,0,9.38,9.38,0,0,0-1.21,5.19v4a9.48,9.48,0,0,0,1.2,5.25,4,4,0,0,0,3.58,1.81,4,4,0,0,0,3.52-1.67,9.36,9.36,0,0,0,1.19-5.11v-4.22Z" transform="translate(-1305.14 -787.25)"/><polygon class="cls-1" points="451.3 185.13 457.17 203.48 463.05 185.13 466.69 185.13 466.69 207.62 463.86 207.62 463.86 198.86 464.13 190.09 458.24 207.62 456.07 207.62 450.22 190.15 450.48 198.86 450.48 207.62 447.66 207.62 447.66 185.13 451.3 185.13 451.3 185.13"/><path class="cls-1" d="M1781.42,986.07v8.8h-2.82V972.38h7.17a6.44,6.44,0,0,1,4.92,1.88,8,8,0,0,1,.09,10,6.63,6.63,0,0,1-4.81,1.82Zm0-2.43h4.35a3.7,3.7,0,0,0,2.89-1.13,4.76,4.76,0,0,0,1-3.24,4.88,4.88,0,0,0-1-3.25,3.54,3.54,0,0,0-2.84-1.22h-4.36v8.84Z" transform="translate(-1305.14 -787.25)"/><path class="cls-1" d="M1806.39,989h-7.6l-1.75,5.88h-2.9l7.24-22.49h2.43l7.26,22.49h-2.9l-1.78-5.88Zm-6.86-2.43h6.13l-3.07-10.23-3.06,10.23Z" transform="translate(-1305.14 -787.25)"/><polygon class="cls-1" points="525.58 207.62 522.74 207.62 513.73 190.28 513.73 207.62 510.89 207.62 510.89 185.13 513.73 185.13 522.77 202.54 522.77 185.13 525.58 185.13 525.58 207.62 525.58 207.62"/><polygon class="cls-1" points="538.23 196.42 542.84 185.13 546.04 185.13 539.64 199.23 539.64 207.62 536.81 207.62 536.81 199.23 530.41 185.13 533.63 185.13 538.23 196.42 538.23 196.42"/></svg>